<svg xmlns="http://www.w3.org/2000/svg" width="32" height="32" viewBox="0 0 32 32">
  <path fill="#FF6200" d="M19.0002,10.9387 C22.8652,10.9387 26.0102,14.0837 26.0102,17.9487 L26.0102,17.9487 L26.0102,22.9487 C26.0102,24.6077 24.6592,25.9587 23.0002,25.9587 L23.0002,25.9587 L15.0002,25.9587 C14.2262,25.9587 13.5262,25.6567 12.9922,25.1747 C12.4612,25.6507 11.7672,25.9487 11.0002,25.9487 L11.0002,25.9487 L3.0002,25.9487 C1.3452,25.9487 0.000200000001,24.6027 0.000200000001,22.9487 L0.000200000001,22.9487 L0.000200000001,17.9487 C0.000200000001,14.0897 3.1402,10.9487 7.0002,10.9487 C9.5442,10.9487 11.7682,12.3177 12.9942,14.3517 C14.2212,12.3117 16.4502,10.9387 19.0002,10.9387 Z M7.0002,12.9487 C4.2432,12.9487 2.0002,15.1917 2.0002,17.9487 L2.0002,17.9487 L2.0002,22.9487 C2.0002,23.5007 2.4482,23.9487 3.0002,23.9487 L3.0002,23.9487 L11.0002,23.9487 C11.5402,23.9487 11.9752,23.5167 11.9932,22.9807 C11.9932,22.9697 11.9902,22.9597 11.9902,22.9487 L11.9902,22.9487 L11.9902,17.9487 C11.9902,17.9277 11.9932,17.9057 11.9932,17.8847 C11.9582,15.1577 9.7352,12.9487 7.0002,12.9487 Z M19.0002,12.9587 C16.2482,12.9587 14.0102,15.1967 14.0102,17.9487 L14.0102,17.9487 L14.0102,22.9487 C14.0102,23.4947 14.4542,23.9387 15.0002,23.9387 L15.0002,23.9387 L23.0002,23.9387 C23.5462,23.9387 23.9902,23.4947 23.9902,22.9487 L23.9902,22.9487 L23.9902,17.9487 C23.9902,15.1967 21.7522,12.9587 19.0002,12.9587 Z M6.9429,0.0249 C9.6789,0.0249 11.9049,2.2509 11.9049,4.9869 C11.9049,7.7229 9.6789,9.9489 6.9429,9.9489 C4.2069,9.9489 1.9809,7.7229 1.9809,4.9869 C1.9809,2.2509 4.2069,0.0249 6.9429,0.0249 Z M19.0137,-2.38031816e-13 C21.7497,-2.38031816e-13 23.9757,2.226 23.9757,4.962 C23.9757,7.698 21.7497,9.924 19.0137,9.924 C16.2777,9.924 14.0517,7.698 14.0517,4.962 C14.0517,2.226 16.2777,-2.38031816e-13 19.0137,-2.38031816e-13 Z M6.9429,2.0249 C5.3099,2.0249 3.9809,3.3539 3.9809,4.9869 C3.9809,6.6199 5.3099,7.9489 6.9429,7.9489 C8.5759,7.9489 9.9049,6.6199 9.9049,4.9869 C9.9049,3.3539 8.5759,2.0249 6.9429,2.0249 Z M19.0137,2 C17.3807,2 16.0517,3.329 16.0517,4.962 C16.0517,6.596 17.3807,7.924 19.0137,7.924 C20.6467,7.924 21.9757,6.596 21.9757,4.962 C21.9757,3.329 20.6467,2 19.0137,2 Z" transform="translate(3 2)"/>
</svg>
