<svg xmlns="http://www.w3.org/2000/svg" width="32" height="32" viewBox="0 0 32 32">
  <path fill="#FF6200" d="M12.0601852,0.00175 L12.179,0.01575 L23.179,2.01575 C23.654,2.10275 24,2.51675 24,2.99975 L24,2.99975 L24,11.99975 C24,19.76775 19.553,22.02075 12.479,25.87775 C12.031,26.12075 11.633,25.93775 11.521,25.87775 C4.458,22.02575 0,19.73575 0,11.99975 L0,11.99975 L0,2.99975 C0,2.51675 0.346,2.10275 0.821,2.01575 L0.821,2.01575 L11.821,0.01575 C11.938,-0.00525 12.062,-0.00525 12.179,0.01575 Z M12,2.01675 L2,3.83375 L2,11.99975 C2,18.68675 6.038,20.60875 12,23.86075 C17.779,20.70875 22,18.80775 22,11.99975 L22,11.99975 L22,3.83375 L12,2.01675 Z M16.2213,6.99995 L17.6123,8.38995 L11.2203,14.78495 C10.8343,15.17095 10.2123,15.16695 9.8303,14.78495 L9.8303,14.78495 L6.3873,11.34195 L7.7783,9.95095 L10.5253,12.69795 L16.2213,6.99995 Z" transform="translate(4 3)"/>
</svg>
