<?xml version="1.0" encoding="utf-8"?>
<!-- Generator: Adobe Illustrator 18.1.1, SVG Export Plug-In . SVG Version: 6.00 Build 0)  -->
<svg xmlns="http://www.w3.org/2000/svg" xmlns:xlink="http://www.w3.org/1999/xlink" version="1.1" id="Laag_1" x="0px" y="0px" viewBox="0 0 546.4 135.2" enable-background="new 0 0 546.4 135.2" xml:space="preserve">
<polygon fill="#FFFFFF" points="492.5,65.9 481.6,57.7 476.4,58.7 472.9,65.9 453.4,68.6 440.5,56.1 427.7,24.7 424,9.7 413.5,7.4   401.6,12.8 385.5,7.2 376.3,9.5 373.2,17.1 367.9,26.9 366.2,42.9 372.2,65.1 367,72.9 374,88.9 367.9,100 363.5,112.5 355.1,111.5   344.4,116.2 340.5,122.2 340.9,130 343.6,131.2 358.8,131.6 390.5,131 394.8,132.4 419,132.5 485.7,132.5 502.7,120.1 499.6,81.1   "/>
<polygon fill="#FFFFFF" points="492.5,65.9 481.6,57.7 476.4,58.7 472.9,65.9 453.4,68.6 440.5,56.1 427.7,24.7 424,9.7 413.5,7.4   401.6,12.8 385.5,7.2 376.3,9.5 373.2,17.1 367.9,26.9 366.2,42.9 372.2,65.1 367,72.9 374,88.9 367.9,100 363.5,112.5 355.1,111.5   344.4,116.2 340.5,122.2 340.9,130 343.6,131.2 358.8,131.6 390.5,131 394.8,132.5 419,132.5 485.7,132.5 502.7,120.1 499.6,81.1   "/>
<polygon fill="#FFFFFF" points="492.5,65.9 481.6,57.7 476.4,58.8 472.9,65.9 453.4,68.6 440.5,56.1 427.7,24.7 424,9.7 413.5,7.4   401.6,12.8 385.5,7.2 376.3,9.5 373.2,17.1 367.9,26.9 366.2,43 372.2,65.1 367,72.9 374,88.9 367.9,100 363.5,112.5 355.1,111.5   344.4,116.2 340.5,122.2 340.9,130 343.6,131.2 358.8,131.6 390.5,131 394.8,132.5 419,132.5 485.7,132.5 502.7,120.2 499.6,81.1   "/>
<polygon fill="#FFFFFF" points="492.5,66 481.6,57.7 476.4,58.8 472.9,66 453.4,68.6 440.5,56.1 427.7,24.7 424,9.7 413.5,7.4   401.6,12.8 385.5,7.2 376.3,9.5 373.2,17.1 367.9,26.9 366.2,43 372.2,65.1 367,72.9 374,88.9 367.9,100 363.5,112.6 355.1,111.5   344.4,116.3 340.5,122.2 340.9,130 343.6,131.2 358.8,131.6 390.5,131 394.8,132.5 419,132.5 485.7,132.5 502.7,120.2 499.6,81.1   "/>
<polygon fill="#FFFFFF" points="492.5,66 481.6,57.8 476.4,58.8 472.9,66 453.4,68.6 440.5,56.1 427.7,24.7 424,9.7 413.5,7.5   401.6,12.8 385.5,7.3 376.3,9.5 373.2,17.1 367.9,27 366.2,43 372.2,65.1 367,72.9 374,89 367.9,100 363.5,112.6 355.1,111.5   344.4,116.3 340.5,122.2 340.9,130 343.6,131.2 358.8,131.7 390.5,131 394.8,132.5 419,132.5 485.7,132.5 502.7,120.2 499.6,81.1   "/>
<polygon fill="#FFFFFF" points="492.5,66 481.6,57.8 476.4,58.8 472.9,66 453.4,68.6 440.5,56.1 427.7,24.7 424,9.7 413.5,7.5   401.6,12.8 385.5,7.3 376.3,9.5 373.2,17.1 367.9,27 366.2,43 372.2,65.2 367,73 374,89 367.9,100.1 363.5,112.6 355.1,111.6   344.4,116.3 340.5,122.2 340.9,130 343.6,131.3 358.8,131.7 390.5,131.1 394.8,132.5 419,132.5 485.7,132.5 502.7,120.2 499.6,81.1   "/>
<polygon fill="#FFFFFF" points="492.5,66 481.6,57.8 476.4,58.8 472.9,66 453.4,68.7 440.5,56.1 427.7,24.7 424,9.7 413.5,7.5   401.6,12.8 385.5,7.3 376.3,9.5 373.2,17.1 367.9,27 366.2,43 372.2,65.2 367,73 374,89 367.9,100.1 363.5,112.6 355.1,111.6   344.4,116.3 340.5,122.2 340.9,130 343.6,131.3 358.8,131.7 390.5,131.1 394.8,132.5 419,132.5 485.7,132.5 502.7,120.2 499.6,81.1   "/>
<polygon fill="#FFFFFF" points="492.5,66 481.6,57.8 476.4,58.8 472.9,66 453.4,68.7 440.5,56.1 427.7,24.7 424,9.7 413.5,7.5   401.6,12.8 385.5,7.3 376.3,9.5 373.2,17.1 367.9,27 366.2,43 372.2,65.2 367,73 374,89 367.9,100.1 363.5,112.6 355.1,111.6   344.4,116.3 340.5,122.2 340.9,130 343.6,131.3 358.8,131.7 390.5,131.1 394.8,132.5 419,132.5 485.7,132.5 502.7,120.2 499.6,81.1   "/>
<polygon fill="#FFFFFF" points="492.5,66 481.6,57.8 476.4,58.8 472.9,66 453.4,68.7 440.5,56.2 427.7,24.7 424,9.8 413.5,7.5   401.6,12.8 385.5,7.3 376.3,9.6 373.2,17.1 367.9,27 366.2,43 372.2,65.2 367,73 374,89 367.9,100.1 363.5,112.6 355.1,111.6   344.4,116.3 340.5,122.3 340.9,130.1 343.6,131.3 358.8,131.7 390.5,131.1 394.8,132.5 419,132.5 485.7,132.5 502.7,120.2   499.6,81.2 "/>
<polygon fill="#FFFFFF" points="492.5,66 481.6,57.8 476.4,58.8 472.9,66 453.4,68.7 440.5,56.2 427.7,24.8 424,9.8 413.5,7.5   401.6,12.8 385.5,7.3 376.3,9.6 373.2,17.2 367.9,27 366.2,43 372.2,65.2 367,73 374,89 367.9,100.1 363.5,112.6 355.1,111.6   344.4,116.3 340.5,122.3 340.9,130.1 343.6,131.3 358.8,131.7 390.5,131.1 394.8,132.5 419,132.6 485.7,132.6 502.7,120.2   499.6,81.2 "/>
<polygon fill="#FFFFFF" points="492.5,66 481.6,57.8 476.4,58.8 472.9,66 453.4,68.7 440.5,56.2 427.7,24.8 424,9.8 413.5,7.5   401.6,12.9 385.5,7.3 376.3,9.6 373.2,17.2 367.9,27 366.2,43 372.2,65.2 367,73 374,89 367.9,100.1 363.5,112.6 355.1,111.6   344.4,116.3 340.5,122.3 340.9,130.1 343.6,131.3 358.8,131.7 390.5,131.1 394.8,132.5 419,132.6 485.7,132.6 502.7,120.2   499.6,81.2 "/>
<g>
	<polygon fill="#FFFFFF" points="492.5,66 481.6,57.8 476.4,58.9 472.9,66 453.4,68.7 440.5,56.2 427.7,24.8 424,9.8 413.5,7.5    401.6,12.9 385.5,7.3 376.3,9.6 373.2,17.2 367.9,27 366.2,43 372.2,65.2 367,73 374,89 367.9,100.1 363.5,112.6 355.1,111.6    344.4,116.3 340.5,122.3 340.9,130.1 343.6,131.3 358.8,131.7 390.5,131.1 394.8,132.6 419,132.6 485.7,132.6 502.7,120.3    499.6,81.2  "/>
	<path fill="#FFFFFF" d="M507.8,32.3l-6.3-12.8l-1.5-1.1l-3.5-0.9l-12,3.9l-0.6,7l0.5,0.6c0,0,1.2,2,2.1,2.8   c0.9,0.8,8.7,3.5,8.7,3.5L507.8,32.3z"/>
</g>
<g>
	<g>
		<path fill="#000066" d="M302.8,98.3v25.9c-14.6,7.3-28.2,11-41.9,11c-38,0-60.8-22.2-60.8-50.5c0-30.5,26.1-55.6,59.3-55.6    c8.2,0,14.4,1.5,20.9,3.6c4.7,1.5,7.5,3.1,10.5,3.1c2.6,0,3.3-4.3,3.6-6.7h3.6l3.3,35H297c-1.8-6.9-5.1-12.6-9.5-16.6    c-6.8-6.9-16.2-10.6-27-10.6c-22.8,0-36.1,18.1-36.1,45.3c0,26.8,16.2,45,37.9,45c6.4,0,12.2-1.5,19.4-4.8V95.8    c0-8.6-1.4-11.9-13.7-11.9v-4h45.8v4C302.5,83.9,302.8,87.6,302.8,98.3z M176.6,55.6v77.7h-6L92.9,53.1c0.4,2.2,0.4,4,0.4,6.2    v48.9c0,14.9,0,20.4,13.7,20.4v4H70.5v-4c13.8,0,13.8-6.6,13.8-20.4V52.4c0-8.3,0-17.4-14.6-17.4v-3.8h34.4l63.9,65.6    c-0.4-1.8-0.4-2.9-0.4-5.5V55.6c0-14.4,0.4-20.6-13.4-20.6v-3.8h36.5v3.8C177.4,35.1,176.6,40.9,176.6,55.6z M0,132.6v-4    c8.8,0,15-0.7,15-13.4V48.5c0-13.1-4.8-13.5-15-13.5v-3.8h51.4v3.8c-10.5,0-14.9,0.3-14.9,13.5v66.7c0,12.7,5.5,13.4,14.9,13.4v4    H0z"/>
		<path fill="#FF6200" d="M403.6,132.6c-1.8-3.3-2.2-8.4-2.2-9.5c0-1.8,0-4.4,1.1-6.1l-4,0.8c-1.1,1.4-1.5,2.1-1.5,2.8l1.8-0.7    c0.4,0,0.7,0.7,1.1,1.4c-0.4,1.8-2.6,1.8-3.3,2.6c-1.1,3.7,2.2,5.8,2.6,8.8H403.6z M543.7,85.7c0-15.9-6.6-31.9-18.3-43.4    c-5.1-5.1-10.6-7.6-15-12.6c-2.2-2.2-3.9-4.4-5.3-7.3c-1.8-1.8-2.9-2.9-5.1-4c0.4,1.1,0.7,2.2,1.1,3.3h-0.4    c-1.8,0-3.7-1.1-5.1-2.2l1.4-1.5c-0.4-0.7-1.4-0.7-2.2-0.7c-5.8-1-11.2,2.1-16.8,3.2v0.7c3.6,1.1,4.3,5.5,6.3,7.7    c0.3,0,0.7,0,2.1,0c0.7,0,1.8,0.7,2.6,0.7c0-0.7-0.7-2.2-0.7-2.2c0.7-0.7,1.5-0.7,2.2,0c1.8,1.1,4.4-0.7,6.2,2.2    c-2.2,0-4.4,0-6.2,1.1c0,0.4,1.1,1,0.7,1.8c-1.8-0.7-4,0-4.8-1.4l-0.4,0.3c2.2,2.6,5.5,4.6,8.8,5.7c4.8,0.7,8.8-1.4,13.4-0.4    c16.5,8,28.2,26.8,28.2,45.6c0,26.8-15.3,37.4-24.9,37.4c-1.8,0-4.6-1.1-5.7-2.1c1.1-3.7,1.7-8.1,1.7-14.7    c0-15.5-6.1-32.3-14.5-40.9c-4-4-8.3-7.3-12.8-7.3c-2.2,0-4.4,0-5.8,1.8c-1.8,1.5-2.9,4.4-2.6,6.2c-2.9,2.2-7.7,3.3-11.3,3.3    c-4,0-9.1-1.5-13.6-5.1c0-1.5,0-3.3,0-5.5c-1.1-0.4-4.7-2.6-2.9-4.2c1.1,0.4,1.8,1,2.2,1.3c-0.4-2.4-0.4-5.3-2.2-7.5    c-0.7,0-1.8,0-2.9-0.7c-1.1-1.1-2.2-2.5-2.2-4.4c1.1,1.8,2.9,1.1,4,2.2c-1.8-4.4-1.1-6.2-4.4-12.6c-0.7-3.3-4-5.1-6.2-7.3    c-1.1-0.7-1.5-1.8-2.8-1.8c-1.4-0.4-1.4-2.2-1.4-3.2c0.4,0,1.4,0.7,2.2,1.1c-2.2-5-3.6-10.4-8.4-13.3l-1.1,0.7c-1.8,0-4,0-5.8,0    c0.7-0.7,2.2-1.1,3.3-1.8c-1.1-1.1-1.8-1.5-4-1.5c-1,0.4-2.3,1.5-3.7,1.5h-0.3c0-1.1-0.4-2.6,1.7-3.3c-2.1-0.4-4-0.4-6.5,0    c-0.4,1.8-1.5,2.9-1.5,4.4c-1.1,0.7-1.5,1.8-2.6,2.9c0-2.2,1.1-4.4,1.5-6.6c-1.5,0.4-3.3,1.5-4,1.5c-2.9-1.5-6.6-2.9-8-2.9    c2.2,1.4,1.1,4,1.5,5.8l-1.5-0.7c-0.3-1.5-2.2-2.6-2.5-4.4c-2.2,0-3.7,0.7-5.5,1.8v0.4c1.1,0,2.6,1.1,3.3,2.2    c-2.6,0-4.4-1.1-6.9-1.1c0,0,0-0.4-0.3-0.4c-1,0.4-2,1.5-2.6,2.2c-2.6,2.2-4.4,4-5.5,7.3c0.7,0,1.8,0,2.2,0.4    c-1.5,0.4-2.2,2.2-3.7,2.6c0,1.3,0,3.5,0,5.3c-1.1,1.1-2.6,2.2-3.3,4.4c-1.8,5.8-2.2,12.2-2.2,19.5c-0.4,1.5-1.1,1.8-1.8,2.2v5.7    c0,0,2.2-2,3.3-2.7c0,1.4,0,3.5,0,4.6c-1.5,0-2.6,1.8-2.6,2.9c0,1.5,0.4,2.9,0.4,4.4c0,0.7,0,0.7,0.4,1.5c0-0.7,0.7-1.5,1.8-1.8    c0,0,0.7-0.7,2.2-0.7c-1.1,1.1-1.5,2.6-2.2,4c-1.1,1.1-1.1,1.1-1.1,1.1s-0.4,0.7-0.4,1.1c1.5,7.5,3.7,14.1,6.6,21.2    c-2.9,4.7-6.2,13.8-8.4,22.6c-1.8-1.8-4.4-2.2-6.6-2.2c-2,0.4-4.2,1.1-5.7,3.3c-2.2-1.1-5.1-0.7-6.5,0.7c-3,2.6-3,4-3,6.2    c-0.7,0.8-2.2,2.6-2.2,5.1c0,3.3,0.4,5.5,2.2,8.4h54.7c-0.4-1.1-1.1-2.5-1.8-3.3c-1.1-2.2-0.4-5.1-0.4-7.3    c1.1-2.2,2.2-4.3,3.7-6.1c0.4-1.1,0-1.1,0.4-1.5l2.6-0.4c1.5,0,2.6-1.1,4.4-1.1c1.1,1.5,1.1-1.1,2.9-1.8c4-0.7,7.7,0,9.9,2.9    c0,0.4,0.4,0.4,0.4,0.8c-0.4,0-1.1,0-1.8,0c-2-0.8-4.4-1.8-7-0.8c0,0.8-0.3,0.8-0.3,1.9c0,0.7,0,0.7,0,1.8c1.4,0,2.6,1.4,4,2.1    c0.7-1.1,2.7-2.1,4.1-2.1c1.8,0,4.4,1,4.4,3.9c0,1.5,0,2.9,0,4c1.5,1.5,3.3,1.8,5.1,2.5c-0.7,1.5-1.8,1.5-2.9,1.5h-2.9    c-0.4-0.4-1.1-0.4-1.1-1.5c-1.1,1.5-1.8,2.9-2.6,4.4H458c-0.7-1.4-1.4-2.5-1.8-3.3c-0.7-2.2-0.7-5.1-0.7-7.3l4-5.4    c2.2,0,4-0.7,8-1.1c0.7-1.1,0-1.5,3.3-1.5c2.6,0,4.4,0.4,5.1,0.8c0.4,0.8,0.4,0.8,0,1.5c-0.7,0.7-2.2-0.7-3.3-0.4    c-0.7,0.7,0.4,1.1,0.4,1.8c0.7,0.6-3.3-0.8-3.3-0.8s-0.7,2.1-1.1,2.9c0,0,1.5,1.4,2.2,2.2c0.7,1.1-1.1,2.2-1.1,3.3    c-0.7-0.4-2.2-1.5-2.2-1.1c-0.7,2.9,0,5.5-0.4,8.4c1.5,0,2.6,0,4,0l0.4-6.2c0.4-3.7,4.7-10.2,7.3-10.2c1.5,0,2.6,0.7,3.6,1.5    c0.7,1.4,2.4,2.1,2.4,2.8c0,0.7-1,1.1-2.7,1.1c-0.7,0-0.7-1.1-1.8-1.8L478,122c0,0,2.5,2.2,2.5,3.7c0,1.8-0.3,2.5-1.5,3.6    l-2.2-4.4c-1.1,0-2.9,2.2-2.9,3.3c0,1.5-0.7,2.2-0.7,4.4h22.3c2.5,0,4.7-0.7,7.3-2.2c1.5,0,2.6,0,4.4,0c9,0,16-2.6,22.6-9.1    C538.6,112.9,543.7,99.1,543.7,85.7z M465.3,118.7l-3.7,0.4c1.5,0.8,1.5,2.6,1.5,2.9c0,1.1-0.7,2.2-1.5,2.9    c-0.7-0.7-0.7-1.8-1.4-2.9c-0.7,0-1.1,1.8-1.1,2.6c0,3.3,1.5,5.8,2.5,8h3.3c-0.4-2.9-1.1-5.5-1.1-8.8    C463.8,122,464.9,119.9,465.3,118.7z M417.5,123.1c0-1.5-1.1-1.8-2.6-1.8c-0.7,0-2.4,1.1-2.4,1.8c0,1.5-0.7,9.5-0.7,9.5h2.3    C415.3,129.3,417.5,125,417.5,123.1z M409.8,122.8c-0.4,0,0.4,0.7-3.3-2.9c-0.8,0-1.8,2.2-1.8,2.9c0,2.9,0.7,6.9,1.8,9.9h2.9    C409.4,129.3,409.8,125.7,409.8,122.8z M505.1,31.2c-0.7-1.5-2.2-2.2-3.3-2.2c-1.1-1.5-2.6-3.3-4-3.3c1.1,0,2.6-1.1,4.4-1.1    c0.7,1.8,2.2,2.9,2.6,4.4L505.1,31.2z M494.2,23.5c-1.4,0-2.5,0-4,0c-0.7-1.1-1.8,0-2.6,0c-0.7,0-1.1,0-2.5-1.1    c2.1,0,3.2-1.1,5.1-1.8C491.6,21.7,493.1,22.1,494.2,23.5z M485.4,65.1c-2.4-0.7-3.7-1.8-5.9-1.8c-0.7,0-4,1.1-4.4,1.8    c-1.1-1.5,0.7-4.4,2.2-5.1c1.5-0.7,2.2-0.4,2.9,0c0,2.2,2.5,1.1,3.8,1.8C484.7,62.9,485.1,63.7,485.4,65.1z M485.1,70.4    c-2.1,0-2.4-0.3-3.7-0.3c-1.8,0-4,0.7-5.1,2.5c-0.7-1.5-0.4-2.2,0-3.1c1.1-1.1,2.9-2.6,4.4-2.6C483,66.9,485.1,68.8,485.1,70.4z     M493.4,78.4c-2.9-1.8-7.3-2.9-9.7-2.9c-1.4,0-5.7,1.8-7.1,3.3l-0.7-3.3c2.2-0.4,2.2-2.2,3.7-2.2c1.1,0,2.5-0.4,3.5-0.4    c1,0,1.7-0.7,2.1-0.7c1.8,0,1.1,1.8,2.1,1.8c1.1,0,1.8-0.7,2.6-0.7C491.6,73.3,493.1,76.2,493.4,78.4z M494.5,86.5    c-2.6,0-5.1-0.7-5.5-1.8c-0.7-0.7,0-2.2-1.8-2.2c-0.7,0-1.8,1.1-1.8,1.1c-0.7,0.4-2.7-1.1-2.7,0c0,1.8-1.4,2.6-3.2,2.6    c-0.7,0-1.4,0-2.2-0.4c0-1.1,0-2.6,0-3.6c4.7,0,4.4-1.5,6.4-1.5c1.4,0,2.4,0.7,3.5,0.7c1.8,0,0.7-0.7,2.6-0.7    c1.8,0,2.5,1.5,3.6,1.8C493.4,83.5,494.5,85,494.5,86.5z M491.2,94.3c-1.1-0.4-3.7-0.7-3.7-1.8c0-1.5-0.7-1.8-2.5-1.8    c-1.4,0-2.4,0.4-4.5,1.1c0,0-1.1-1.5-1.5-2.9c0.7-0.4,3.6-1.1,4.9-1.1c2.4,0,5,0,5,1.1C489,90.3,491.2,90.7,491.2,94.3z     M428.1,37.6c0,0.4-0.7,3.7-0.7,3.7l-2.9,0.7l1.8-7.9C427,35.4,428.1,36.8,428.1,37.6z M498.2,107.1c0,2.2,0,2.9-1.1,4.7l-2.2-3.3    c0.8-1.1,0.8-2.5,1.8-4.4C497.1,104.2,498.2,106.7,498.2,107.1z M489.4,102.3c-2.6,0-1.1-5.1-6.4-5.1c-1,0-1.7,1.8-3.2,2.2    c0-0.4,0.4-2.6,0.4-2.6c0-0.7,0.3-2.2,1.8-2.9c2.7,0,2,1.1,4.1,1.8c1.1,0.4,1.8,1.1,3.3,1.1V102.3z M466.7,81.7    c-3.3-1.8-5.1-5.1-8-8.4c2.9,0,3.7,2.9,5.8,3.3c0.7,0.7,1.5,1.1,2.2,2.2C466.7,79.9,466.7,80.6,466.7,81.7z M435.7,54.9    c-2.2,0-3.3-1.1-4.4-3.1c0-1.1-0.4-2.5,0-4.4c0.7,1.5,0.7,2.2,1.5,2.9c1.5-0.7,1.5,1.1,1.8,1.4C434.9,52.7,435.7,53.8,435.7,54.9z     M495.6,116.6c-0.8,1.1-0.8,1.1-1.1,2.1c0-1.8-2.2-2.8-3.7-5.8l1.5-2.6c1.1,0.7,2.6,1.8,2.6,3.7c0,0-0.4,0.8,0,1.5    C494.9,115.9,495.6,115.9,495.6,116.6z M488.3,106.4c0,1.5-0.4,1.8-0.7,3.6c-2.5-0.3-2.5-3.3-2.9-3.6c-1.7-2.2-4.1-0.4-6-0.4    c-0.7-2.2,0.4-2.2,0.4-3.7c1.1,0,2.2-0.7,3.2,0c1.7-0.7,2.7,1.1,4.5,1.1C487.2,104.2,488,106,488.3,106.4z M470,91.4    c0,1.5-0.7,2.6-0.4,4c-0.7-2.2-2.2-4.4-2.9-6.5c0-0.4-0.4-0.4,0.4-0.7c0.4,0,1.8,0,1.8,0.4C469.3,89.2,470,90.3,470,91.4z     M438.2,62.9c-0.4,1.5-1.8,0-2.2,0c-1.1,0-2.6,0-3.3,0c-0.4-0.7-0.7-1.1-0.7-1.8c1.5-0.4,2.6-1.1,3.7-0.4    C436.4,61.8,437.1,62.9,438.2,62.9z M446.2,71.1c-1.1,1.1-4,1.5-6.2-0.4l2.9-1.3C444,70.4,445.5,70.8,446.2,71.1z M464.9,91.7    c0,2.2-0.4,4.8-0.4,7.3c-1.1,0-1.1-0.7-1.1-2.2c-0.4-2.2-1.1-4-1.8-6.2c-0.7-2.9-2.5-5.3-4-8.6c-0.4-1.5-2.2-2.2-3.7-3.3    c1.8,0,3.7,0,5.1,1.5c0,0.7,0.4,1.1,1.5,2.2c2.6,0,1.8,3.3,4,4.8c-1.1,0.9-1.4,1.7-2.2,2.4C463.5,90.3,464.5,90.7,464.9,91.7z     M450.7,81c0,1.1-0.7,1.5-1.4,2.2c0,0-1.3-1.8-1.3-2.6c0-1.5,0-2.2,0.3-3.3C449.3,78.4,450.7,79.9,450.7,81z M484.7,114    c0,0.1-0.7,0.8-0.7,0.8c-1.7-0.8-2.7-1.1-4.9-1.1c0-1.5-1.1-3.3-1.8-3.3c-2.2,0-1.8,1.5-3.6,1.5l3.3-3.3c0.4-0.7,0.4-0.7,1.1-0.7    c1.1,0.7,1.4,1.1,2.5,1.1c0,0.7,0,1.1-0.3,2.2c1.1,0.7,1.8-0.4,2.5,0.7C483.7,112.2,484.7,112.6,484.7,114z M455.4,88.9    c0,0.7-1.1,1.4-1.5,1.4c0,0-1.8-1.8-2.2-3.5c-0.4-1.5,1.1-4,1.1-4c0.4,0,0.7,0.7,1.1,0.7c0.4,0.4,0,1.5,0.4,2.6    C455.4,86.8,456.1,88.1,455.4,88.9z M427.4,53.8c-4.4-2.4-9.1-4.2-14.5-4.6c0,1.1,0,2.2-0.3,2.5c4.2,2,8.2,3.9,11.9,7.1v3.3    c-3.7-3.6-7.7-7.3-12.2-8.4c-0.3,0.7-1.7,1.5-2.1,2.9c-2.6-1.8-5.5-3.7-8.4-4c-1.1,0-1.8-3.8-1.8-3.8c1.8-0.7,2.9-1.8,3.7-3.7    c0.4,0,1.1,0,1.5,0c1.1,0,1.1-0.7,1.1-1.8c0-2.2-4.8-2.2-6.9-2.2c-2.6,0-4.4,0-5.9,1.1c-0.7,0-0.3,1.1-0.3,1.8    c0,0.4,1.1,1.1,1.1,1.1c0.7,0,1.5-0.7,2.2-0.7c-0.4,2.2,0.4,3.3,2.5,4.4l-0.4,3.5c-4.4,0-7.3,1.7-10.6,3.2    c-1.1-0.7-1.8-1.8-2.6-2.9c-4.4,1.4-11.8,7.3-11.8,7.3s0-1.5,0-2.6c3.2-2.9,7.4-4.4,10.7-6.1v-2.5c-1.5-0.7-2.9,0-4.4,0    c-3.1,0.4-6.3,1.8-8.5,3.5c0-1-0.4-2.4-0.4-2.4c4-2.2,8.8-4,13.6-3.3c0-0.4,0-1.5,0-1.5c-0.4-0.7-0.4-1.8-1.1-1.8    c-2.2-2.2-4.4-5.5-4.4-7.7l1.5-0.7c-0.7-2.1-1.5-7.5,0-9.3c-2.1-1.1-4.1-2.9-4.8-4.4c-0.7-1.8-1.5-2.9-1.8-5    c1.1-2.2,1.8-2.9,2.9-5.1c0.7,0,1.7-0.4,2-1.1c1.8-0.4,2.9-2.2,5.1-1.1c1.5,0,2.9,0.7,4,1.1c0,0.7,0,1.1,0.7,1.8    c2.2,0,2.2,2.2,3.3,4c1.1,0.4,2.2,0.4,2.9,0.4c2.2,0.7,4,0.7,4.7,1.7c2.9-1.7,5.8-2,9.1-1.7c0.4-1.1,1.1-2.6,1.5-4.4    c0.3,1.1,0.3,0,1.1,0c1.3-1.1,3-2.9,5.5-2.2c1.5,1.1,4,0.4,5.5,2.2c1.1,1.4,1.8,3.6,2.9,5.3c-1.1,2.1,0,5.1-2.2,6.2l-2.2,2.2    c-0.7,0-0.7,0.7-1.8,0.7c1.1,2.6,0.4,6.2-0.7,8.6c0.7-0.3,1.8-0.3,1.8-1.3c0.4,0.4,0,1,0,1.3c0,0.7,0,1.1,0,1.1    c0,1.8-1.1,3.7-2.6,5.1c-0.7,2.2-2.6,5.1-4.9,5.5v0.7c5.3,0,9.7,1.5,14.8,4V53.8z M442.2,76.6l-1.8,0.7c-4,0-5.8-1.1-7.7-2.6    c1.5,0,3.3-1.8,3.3-1.8C437.8,74.8,440.4,76.2,442.2,76.6z M432,68.4c-2.1,0-4.6,1.1-5.7-1.1c0.7-0.4,1.5-1.5,2.2-2.2L432,68.4z     M461.6,102.3c0,1.8-2.2,4-2.9,5.5c0.7-1.8,0.7-5.5,0-5.5c-0.7-0.4-2.2,0-2.2-0.7c0-1.1,0.4-2.5,0.4-3.3c0-1.5-1.1-2.2-1.1-2.9    c0-2.2,2.6-2.5,3.3-4c0.4,1.5,0.4,2.9,0.4,4.7c0,0.7,1.1,2.9,0,4.8C459.4,102,461.6,101.2,461.6,102.3z M453.2,98.3    c0,2.2-1.4,4-1.8,6.2c0-2.2-0.4-4-1.8-5.5c0-0.7,1-0.7,0.3-1.8c0,0-2-1.1-2-2.6c0-1.5,1.3-2.6,2-3.6c0-0.4,1.5,0.7,1.5,2.9    c0,0.4,0,1.5-0.4,2.2C450.7,97.2,453.2,97.2,453.2,98.3z M423.4,72.6c-1.8,0.3-3.3-1.5-5.1-2.2c-0.7-2-0.7-4.2-1.5-5.3    c1.5,1.1,4.7,1.1,4,4.4C420.8,70.4,422.3,71.1,423.4,72.6z M433.5,82.8c-1.5,0-3.9,0-5.3-1.1c-2.2-1.1-2.9-1.8-4-2.9    c1.5-1.1,3.3-1.1,4-1.4C429.6,78.8,430.9,81.4,433.5,82.8z M372.5,26.8l-2.5,0.7l0.3-1.8c0.7-1.1,1.1-2.2,2.2-3.3V26.8z M419,77.3    c-1.5,0.4-4,1.1-4.7-0.7c-2-3.3-1-6.2,0-8.6c0.7,2.1,1.1,4.2,1.4,6C416.1,75.5,418.3,76.2,419,77.3z M408.7,57.5    c-0.4,2.2-1.1,5.5-3.3,6.9c0-1.5-0.7-2.2-1.5-3.3c-0.4,0,0,1.1-0.4,1.1c0,0.7-0.7,2.2-0.7,3.7c-0.7,0.3-2.2,1.1-3.7,0.3v-1.1    c-0.4-0.7-0.4-2.2-0.4-2.9l-0.4-0.4c-1.1,0.4-1.1,1.1-1.1,1.8c-0.4,0.7-1.1,1.5-1.1,2.5c-1.5,0-2.2-0.3-3.3-1.1v-3.3    c0-0.7,0-0.7-0.4-0.7l-1.8,1.8c-1.5-1.1-1.8-4-1.8-5.8c5.8-3.3,13.1-2.2,17.5-0.4C407.3,57.1,408,57.1,408.7,57.5z M427.4,86.8    c0,0-0.7,0-1.1,0c-4,1.3-7.3-1.1-10.6-3.3c1.8-0.7,4.4-1.1,6.6-1.1l1.1,2.2C424.5,85,426.3,86.1,427.4,86.8z M373.3,31.9l-1.8,2.2    c0.4,3.5-1.1,6.1-1.1,9.3l-1.8-5.8c0.4-1.5,0.7-2.8,1.8-4.6L373.3,31.9z M410.5,78.8c-1.8-1.1-5.1-1.4-4.4-3.7    c0.7-1.8,1.8-2.2,2.6-2.9C409.1,74.8,409.4,76.6,410.5,78.8z M444,115.9h-0.4c-0.7-1.1-1.1-1.9-1.8-1.9c1.1-4-1.1-7.3-1.8-10.6    v-1.1c1.1,1.8,4,3.7,3.6,5.5C444,111.1,444,114,444,115.9z M435.7,102.3c-1.8,0-3.3,0-4.4-1.8c-0.4,0-1-1.1-1.3-0.3    c-1.8,1.4-3.6-1.1-5.8-0.7c-1.1,1.1-2.2,1.8-4,2.2v-0.3c0-1.1,0.7-2.2,2.2-2.9c2.2,0.7,4-4,6.2-1.5c1.1,0.4,2.1,0.4,2.8,0.4    C433.8,98.3,434.6,100.5,435.7,102.3z M402.5,72.9c0,2.6-0.4,5.9-2.9,7l-0.7-3.7C400,75.5,401.1,74.8,402.5,72.9z M414.6,88.9    c-0.7,0.7-2.7,1.4-4.1,1.4c-2.2-1.8-3.7-3.8-5.8-6.7l5.8,1.1C411.6,85.4,413.6,87.8,414.6,88.9z M436.4,109.7    c-1.5-1.1-3.6-1.1-4.4-2.9c-1.4-0.4-2.4-0.4-4.2-0.4c-1.5,0.4-3.3,0.4-4.7,0.4c-0.4,0,0-0.4-0.7-0.7c-2.2,0.7-4.4,0.7-6.6,2.9    l1.8-4.4c1.5,0,2.6-0.7,3.3-0.7c1.5-0.4,2.6-0.4,3.7-0.4v0.4c4,0,8.6-0.4,11.5,2.9L436.4,109.7z M394.9,78.8c-2.2-2.2-4-4-4-6.2    c1.1,0,2.2,0,3.3,0.7C394.1,75.1,394.9,76.6,394.9,78.8z M387.9,68.4l-1.1,4.5c-1.1-2.2-2.2-4.2-2.6-6.7L387.9,68.4z M440,117    c-0.4,0.8-1.1,2.9-1.5,4.3c-0.7-2.2-1.5-5.4-4-5.4c-0.4-1.5-0.7-1.9-2.2-3l-2.8-0.4c0.4,1.5,2.4,1.5,1,3.3    c1.4,1.1,2.5,1.1,3.2,2.8c0.7,1.1,0,2.6,0.4,3.3l-2.2,1.1c0-1.8,0.4-5.4-2.1-6.1c-2.2,0.8-2.5-2.2-4-3c-0.7,0-0.7-1.8-1.8-1.1    c-1.8,1.1-4,0-5.8,1.1l1.8-2.9c1.5-1.1,2.9-0.7,4.4-1.1l2.9-0.3c2.9,0,5.3,1.4,8.3,2.5c1.5,0.7,2.2,1.8,2.2,3.3    C438.6,115.9,440,115.9,440,117z M411.3,100.2h-0.7c-0.3,0-2.9-1.1-3.7-1.8c-0.3-1.1-0.3-2.2-0.3-2.2c1.1,0,1.8,0,2.9,0    L411.3,100.2z M383.2,74.1c-2.2-0.7-4.7-2.9-5.7-4.6c-0.7-1.4-1-3.3-1-4.4c1.3,0,2.3,1.1,2.7,1.8v0.4    C381,69.5,382.8,71.1,383.2,74.1z M400.7,86.8c-0.3,2-1.5,2.7-3.3,5.3c-1.1,0.8-3.3,1.1-5.5,2.2c0.3-1.1,1.4-1.4,2.2-2.6    c0.7-1.1,2.2-2.9,2.6-3.9C398.5,86.8,399.2,86.8,400.7,86.8z M427.4,122l-1.1,1.1c-1.1-1.1-0.4-4-2.2-4.4c-1.8,0-3.3-1.8-4-2.1    l1.5-0.7c0,0,0.7-0.3,1.5,0c0.7,0.7,1.5,1.1,1.5,1.8c0.7,1,1.8,0,2.6,1C427.4,119.9,427.8,121.3,427.4,122z M394.1,83.9    c-1.1,2.2-2.2,4.2-4.4,5c-1.1,0-2.9,0.7-5.1,0c1.1-0.7,2.2-1.1,3.7-2l2.9-2.9H394.1z M401.4,100.5c-1.5,1.1-2.6,1.1-4.4,0.7    l-2.2-2.9c1.8,0,4,0,5.5,0L401.4,100.5z M375.1,72.9c-1.8,1.8-3.7,2.6-4.4,4.8c0-1.1-0.4-2.2-0.7-2.9c0.3-1.5,1.4-2.2,1.8-2.5    C372.9,72.6,373.6,72.6,375.1,72.9z M379.2,78.4c0,1.5-0.7,3.3-2.3,5.1c-0.3,0.4-1.4,1.1-1.4,1.1c0-2.2,1-4,1-5.9    C377.5,78.4,378.5,77.7,379.2,78.4z M384.3,82.8l-1.5,5.3c-1.8,1.4-4.3,0.7-6.3,0.7c2.7-0.7,4.8-3.9,6.3-6.1    C383.2,82.5,383.5,82.8,384.3,82.8z M386.1,101.2c0,1.1-0.4,5.5-0.4,5.5c-0.7-2.5-2.6-5.1-4.8-5.1c-1.1-1.1-2.2-2.2-2.5-3.3    c-1-1.1-2,0-3.4-1.1c-1.5,0-3.3,0-4.7,1.1v-1.1l2.6-2.9c2.6,0.4,5.6,0,6.3,1.8c1.8,1.1,3.7,2.2,4,2.9c0,0.4,0,0.4,0,1.1    C383.9,100.5,385.4,100.9,386.1,101.2z M384.3,112.6l-2.6,2.2c-0.7-0.8,0-2.6-1.1-3.7c0-0.7,0.7-1.1,0.4-1.4    c-0.4-0.7-4.5-2.2-4.5-2.2c-1.4-1.1-3.2-2.2-4.7-3.6c-1.5-0.4-2.6,0.4-4.4,0.7c0-0.4,0-0.7,0-0.7c0.7-1.5,0.7-3.3,2.9-3.3    c1.1,0,2.6,0,3.3,1.1c1.5,0,2.2,1.5,3.2,1.8c1.7,1.8,3.1,2.6,4.1,3.3c0,1.1,0.4,1.8,1.1,2.2C384.3,108.9,383.5,111.1,384.3,112.6z     M378.8,117.7l-1,3.6l-2.4-6.5c-2.9-2.6-6.2-3-8-4.4c-1.5-0.4-1.5,0.7-2.2,0c0-0.7,0-1.8,1.1-2.9h2.2l2.2,1.1    c1.1,1.1,3.6,1.1,3.6,3.3c0,0.4-0.4,0.7,0.7,2.2l3.4,0.8L378.8,117.7z M368.9,121.3c0,2.9-4.7,6.9-4.7,6.9c0-1.8,1.1-4,1.1-6.2    c0,0-1.5-1.5-2.9-1.5c-1.1,0.7-1.1,1.5-1.4,2.6c-1.1,2.2-3.3,4.4-3.6,6.6c-0.4,0-0.4-0.4-0.4-0.4c0-3.6,0.4-9.9,2.5-12.4    c1.8-2.2,3.3-2.2,5.5-2.5l1.8,0.3l-1.5,2.2C366.7,117.7,368.9,119.1,368.9,121.3z M356.1,119.1c0,1.5-0.4,2.9-1.1,4    c-0.4-1.5-1.4-3.3-3.2-3.3c-1.4,2.9-1.8,4-0.4,8.4c-1.1,1.1-1.8,1.5-3.3,2.2c-0.7-1.5-0.7-4-0.7-5.5c0-2.6,0.4-5.1,1.1-7.2    c1.1-1.1,1.8-2.9,2.9-3.7h3.9c-1.8,0-1.8,1.5-1.8,2.6C354.7,117,356.1,117.4,356.1,119.1z M346.8,123.1c-0.4,0-1.5-1.1-2.6-1.1    c-1,2.2,0,3.7,0,6.2c0,1.1-0.4,2.2-0.4,2.2c-0.7,0-2-1.5-2.3-2.9v-5.8l3-3.9C346.8,119.1,347.5,121.3,346.8,123.1z M421.6,22.4    c0.7-1.8,0.7-5.1-0.7-6.8c-0.7-1.5-2.5-2.2-4.4-3.6l-2.5,1.4c-1.3,0.7-2,2.2-2,3.9c2.3,1.1,4.9,4,6,6.2h1.1    C420.1,22.4,420.8,23.5,421.6,22.4z M409.4,24.6c0-1.1-0.4-1.1-0.7-1.1c-1.8,0-1.8-2.9-3.3-2.2c-0.7,0-1.5-0.7-2.5,0    c0,0.4,0,0.4,0.7,0.4c1.8,0,1.1,2.5,2.6,2.9C406.9,24.6,408.3,24.6,409.4,24.6z M415,29c0,0,0.7,0,0-0.4l-7.7-1.1    c-0.7,1.1-2.6,1.1-2.6,2.2H404c0.7,2.9,0.7,6,0.7,9.3c1.5,0.4,2.9,1.1,2.9,3.3c1.4,0.7,2.9,1.1,4.3,2.2c0.7-0.4,1-1.5,1.3-2.5    c-1.3-1.8-4.6-0.7-4.6-4l-2.2-0.7c0-2.1,0-4.2-0.4-5.7l0.4-0.3c0,0.3,0.3,0.7,1.1,1.4c1.4,0,2.9,0.4,4.3-0.7    c0.7-0.4,0.7-2.2,1.3-2.2C413.9,29.7,414.6,29.7,415,29z M397,21.3c-0.7-0.7-2.9,0.4-4,0.7c-1.5,0.4-2.5,1.5-2.5,2.5h4    C394.9,23.5,396.3,22.1,397,21.3z M389,17.4c-0.4-3.5-4.4-3.9-6.2-5.3h-1.5c-2.9,1.1-3.5,4-3.8,6.4c1,3.3,3.1,1.1,4.6,3.3    C383.5,20.6,387.2,18,389,17.4z M410.5,50.7v-1.8h-3.7l-0.3,0.4L410.5,50.7z M394.1,29.7c0-0.7-0.7-1.4-1.8-2.2c-2.9,0-5.5,0-8,0    h-0.7c0,1.5,1.1,2.2,2.2,2.2c0,1.5,1.1,1.8,1.5,2.2c1.1,0.7,1.5,0.7,2.6,0c1.1,0.7,1.5-0.7,1.8,0c0,2.2,0,3.2-0.4,5    c-0.4,2.6-2.6,2.2-4.4,3.3c0,1.1-1.1,2.9,0,4c1.1-0.7,1.8-1.1,3.7-1.8c0-1.1,1.1-2.2,2.5-2.9C393,36.1,394.1,33,394.1,29.7z     M391.2,48.9c-0.7-1.5-2.6,0-4.4-0.7c0,0.7,0,1.5,1.1,2.2C389,49.3,390.8,48.9,391.2,48.9z"/>
	</g>
</g>
<g>
</g>
</svg>
