<svg width="199" height="27" viewBox="0 0 199 27" fill="none" xmlns="http://www.w3.org/2000/svg">



<path d="M50.9198 8.42488H45.2898V8.88488C45.5098 9.03488 45.8498 9.37488 45.8498 10.4149V25.4349H50.9198C57.3498 25.4349 60.7198 21.0649 60.7198 16.7449C60.7198 12.5449 57.5398 8.42488 50.9198 8.42488ZM50.3398 23.8549C49.7598 23.8549 49.2498 23.8049 48.6198 23.7049V10.0249C48.8398 10.0049 49.3698 9.97488 49.8798 9.97488C55.4398 9.97488 57.6198 12.8849 57.6198 16.7949C57.6198 21.3549 54.6798 23.8549 50.3398 23.8549ZM29.2498 23.0749L26.7998 18.8549C26.3598 18.0949 25.9298 17.5549 24.9798 17.1849C27.8998 16.6249 29.0098 14.7049 29.0098 12.7449C29.0098 10.4849 27.5498 8.42488 22.8998 8.42488H17.5598V8.88488C17.7798 9.03488 18.1198 9.37488 18.1198 10.4149V25.4349H20.8898V17.7149H21.8098C22.9698 17.7149 23.3598 18.3249 24.2398 19.8249L26.4198 23.6149C27.0798 24.7549 28.4598 25.4349 30.2098 25.4349H31.6698L31.7398 24.8749C30.6398 24.5849 29.8098 24.0249 29.2498 23.0749ZM22.4598 16.1849H20.8798V10.0449C21.2398 10.0249 22.1698 9.99488 22.5798 9.99488C24.6698 9.99488 26.0498 10.9149 26.0498 12.9549C26.0498 14.9749 24.6898 16.1849 22.4598 16.1849ZM15.2298 20.2649L15.6398 20.3849L15.3198 23.9249C13.4498 25.1149 11.3898 25.6749 9.20977 25.6749C3.16977 25.6749 0.00976562 21.3849 0.00976562 16.9149C0.00976562 12.3249 3.30977 8.18488 9.12977 8.18488C11.4098 8.18488 13.3798 8.81488 15.2398 9.68488L15.4598 13.3449L15.0698 13.4649L14.9998 13.3149C13.8098 10.9349 11.8698 9.55488 9.51977 9.55488C6.23977 9.55488 3.10977 12.2449 3.10977 16.8549C3.10977 21.5149 6.33977 24.2749 9.58977 24.2749C11.8698 24.2749 13.7598 22.9149 15.0698 20.5149L15.2298 20.2649ZM62.2498 8.42488H65.5698V25.4349H62.7998V10.4149C62.7998 9.37488 62.4598 9.03488 62.2398 8.88488V8.42488H62.2498ZM43.2998 22.2549L43.7098 22.4049L43.0098 25.4349H33.5698V10.4149C33.5698 9.37488 33.2298 9.03488 33.0098 8.88488V8.42488H42.5198L42.5898 11.4349H42.1798L42.1298 11.3149C41.8598 10.6549 41.3098 10.0049 40.1898 10.0049H36.3298V15.3149H41.1298V16.8449H36.3298V23.7149C36.9598 23.7849 38.1298 23.8649 39.2198 23.8649C42.3498 23.8649 42.7398 23.2549 43.1998 22.4349L43.2998 22.2549ZM113.79 8.42488H113.84V19.7549C113.84 23.6849 111.34 25.6749 107.87 25.6749C104.33 25.6749 101.73 23.6149 101.73 19.3949V10.4149C101.73 9.37488 101.39 9.03488 101.17 8.88488V8.42488H104.49V19.3949C104.49 22.5249 106.02 24.1049 108.44 24.1049C110.5 24.1049 112.03 22.4749 112.03 19.9349V10.4249C112.03 9.38488 111.69 9.04488 111.47 8.89488V8.43488H113.79V8.42488ZM145.16 20.5049C145.16 23.1449 143.19 25.6749 139.75 25.6749C137.88 25.6749 136.09 24.9449 134.97 23.9249L134.65 20.3849L135.11 20.2349L135.28 20.6249C136.32 23.0049 138.02 24.2649 139.72 24.2649C141.37 24.2649 142.7 23.0249 142.7 21.3549C142.7 20.1449 141.95 19.1749 140.73 18.4949L137.87 16.8949C136.8 16.3149 134.98 15.0949 134.98 12.8449C134.98 10.3449 136.95 8.18488 140.12 8.18488C141.48 8.18488 142.79 8.57488 144 9.37488L144.19 12.4849L143.8 12.6049L143.65 12.3149C143.07 11.1549 142.1 9.57488 140.18 9.57488C138.55 9.57488 137.32 10.7149 137.32 12.1249C137.32 13.2849 138.22 13.9449 139.41 14.5949L142.32 16.1949C144.38 17.3049 145.16 18.8349 145.16 20.5049ZM157.31 22.2549L157.72 22.4049L157.02 25.4349H147.58V10.4149C147.58 9.37488 147.24 9.03488 147.02 8.88488V8.42488H156.53L156.6 11.4349H156.19L156.14 11.3149C155.87 10.6549 155.32 10.0049 154.2 10.0049H150.34V15.3149H155.14V16.8449H150.34V23.7149C150.97 23.7849 152.14 23.8649 153.23 23.8649C156.36 23.8649 156.75 23.2549 157.21 22.4349L157.31 22.2549ZM198.44 21.4549C198.44 21.5549 198.37 21.6449 198.25 21.6449C198.18 21.6449 198.06 21.6249 197.57 21.4949C194.95 20.8149 193.4 20.4549 189.98 19.8449C186.36 16.6949 183.4 14.4549 180.01 11.9549C180.42 14.2149 180.64 16.4649 180.67 19.0149C180.67 19.4049 180.79 19.5249 181.16 19.5049C181.84 19.4349 182.83 19.3849 183.9 19.3849C185.87 19.3849 188 19.5349 189.99 19.8449C192.54 22.1449 194.89 24.4349 196.57 26.2249C196.62 26.2749 196.64 26.3449 196.64 26.3949C196.64 26.4949 196.57 26.5849 196.45 26.5849C196.38 26.5849 196.26 26.5649 195.77 26.4349C190.46 25.0049 185.68 24.5649 181.87 24.5649C178.11 24.5649 175.32 25.0049 173.74 25.2949C173.4 25.3649 173.33 25.2449 173.25 24.9349C171.02 15.0349 166.38 6.05488 160.92 1.18488C160.85 1.11488 160.82 1.03488 160.82 0.994879C160.82 0.874879 160.92 0.754877 161.06 0.754877C161.11 0.754877 161.18 0.77488 161.23 0.80488C167.2 3.74488 173.14 7.28488 179.99 11.9149C179.02 7.32488 177.37 3.49488 175.06 0.53488C175.01 0.46488 174.99 0.414879 174.99 0.344879C174.99 0.224879 175.09 0.124878 175.21 0.124878C175.26 0.124878 175.36 0.144879 175.5 0.244879C183.92 6.01488 191.05 11.8449 198.38 21.2849C198.42 21.3349 198.44 21.4049 198.44 21.4549ZM99.6698 20.5049C99.6698 23.1449 97.6998 25.6749 94.2598 25.6749C92.3898 25.6749 90.5998 24.9449 89.4798 23.9249L89.1598 20.3849L89.6198 20.2349L89.7898 20.6249C90.8298 23.0049 92.5298 24.2649 94.2298 24.2649C95.8798 24.2649 97.2098 23.0249 97.2098 21.3549C97.2098 20.1449 96.4598 19.1749 95.2398 18.4949L92.3798 16.8949C91.3098 16.3149 89.4898 15.0949 89.4898 12.8449C89.4898 10.3449 91.4598 8.18488 94.6298 8.18488C95.9898 8.18488 97.2998 8.57488 98.5098 9.37488L98.6998 12.4849L98.3098 12.6049L98.1598 12.3149C97.5798 11.1549 96.6098 9.57488 94.6898 9.57488C93.0598 9.57488 91.8298 10.7149 91.8298 12.1249C91.8298 13.2849 92.7298 13.9449 93.9198 14.5949L96.8298 16.1949C98.8898 17.3049 99.6698 18.8349 99.6698 20.5049ZM81.0798 8.42488L81.1498 11.4349H80.7398L80.6898 11.3149C80.4198 10.6549 79.8698 10.0049 78.7498 10.0049H75.8598V25.4349H73.0898V10.0049H70.1998C69.0798 10.0049 68.5298 10.6649 68.2598 11.3149L68.2098 11.4349H67.7998L67.8698 8.42488H81.0798ZM132.98 20.5049C132.98 23.1449 131.01 25.6749 127.57 25.6749C125.7 25.6749 123.91 24.9449 122.79 23.9249L122.47 20.3849L122.93 20.2349L123.1 20.6249C124.14 23.0049 125.84 24.2649 127.54 24.2649C129.19 24.2649 130.52 23.0249 130.52 21.3549C130.52 20.1449 129.77 19.1749 128.55 18.4949L125.69 16.8949C124.62 16.3149 122.8 15.0949 122.8 12.8449C122.8 10.3449 124.77 8.18488 127.94 8.18488C129.3 8.18488 130.61 8.57488 131.82 9.37488L132.01 12.4849L131.62 12.6049L131.47 12.3149C130.89 11.1549 129.92 9.57488 128 9.57488C126.37 9.57488 125.14 10.7149 125.14 12.1249C125.14 13.2849 126.04 13.9449 127.23 14.5949L130.14 16.1949C132.2 17.3049 132.98 18.8349 132.98 20.5049ZM116.58 8.42488H119.9V25.4349H117.13V10.4149C117.13 9.37488 116.79 9.03488 116.57 8.88488V8.42488H116.58Z" fill="#003868"/>



</svg>
